<svg width="25" height="24" viewBox="0 0 25 24" fill="none" xmlns="http://www.w3.org/2000/svg">
<g id="Instagram">
<ellipse id="Box" cx="12.5" cy="12" rx="12.5" ry="12" fill="url(#paint0_linear_27_5552)"/>
<g id="logo">
<path id="3" fill-rule="evenodd" clip-rule="evenodd" d="M12.5 4C10.2368 4 9.95304 4.00921 9.0642 4.04814C8.17721 4.08698 7.57143 4.22223 7.04137 4.42001C6.49338 4.62442 6.02865 4.89797 5.56534 5.34271C5.10207 5.78748 4.81712 6.23363 4.60419 6.7597C4.39818 7.26855 4.25729 7.8501 4.21684 8.70161C4.17628 9.5549 4.16669 9.82733 4.16669 12C4.16669 14.1727 4.17628 14.4451 4.21684 15.2984C4.25729 16.1499 4.39818 16.7314 4.60419 17.2403C4.81712 17.7664 5.10207 18.2125 5.56534 18.6573C6.02865 19.102 6.49338 19.3756 7.04137 19.58C7.57143 19.7778 8.17721 19.913 9.0642 19.9519C9.95304 19.9908 10.2368 20 12.5 20C14.7632 20 15.047 19.9908 15.9358 19.9519C16.8228 19.913 17.4286 19.7778 17.9587 19.58C18.5067 19.3756 18.9714 19.102 19.4347 18.6573C19.898 18.2125 20.1829 17.7664 20.3959 17.2403C20.6019 16.7314 20.7428 16.1499 20.7832 15.2984C20.8238 14.4451 20.8334 14.1727 20.8334 12C20.8334 9.82733 20.8238 9.5549 20.7832 8.70161C20.7428 7.8501 20.6019 7.26855 20.3959 6.7597C20.1829 6.23363 19.898 5.78748 19.4347 5.34271C18.9714 4.89797 18.5067 4.62442 17.9587 4.42001C17.4286 4.22223 16.8228 4.08698 15.9358 4.04814C15.047 4.00921 14.7632 4 12.5 4ZM12.5 5.44144C14.7251 5.44144 14.9887 5.4496 15.8674 5.48809C16.6799 5.52366 17.1211 5.65398 17.4148 5.76354C17.8038 5.90867 18.0814 6.08202 18.373 6.36198C18.6646 6.64191 18.8452 6.90841 18.9963 7.28183C19.1105 7.56373 19.2462 7.98732 19.2833 8.76731C19.3234 9.61088 19.3319 9.86391 19.3319 12C19.3319 14.1361 19.3234 14.3891 19.2833 15.2327C19.2462 16.0127 19.1105 16.4363 18.9963 16.7182C18.8452 17.0916 18.6646 17.3581 18.373 17.638C18.0814 17.918 17.8038 18.0913 17.4148 18.2365C17.1211 18.346 16.6799 18.4763 15.8674 18.5119C14.9888 18.5504 14.7253 18.5586 12.5 18.5586C10.2748 18.5586 10.0113 18.5504 9.13264 18.5119C8.32015 18.4763 7.8789 18.346 7.58526 18.2365C7.19628 18.0913 6.91868 17.918 6.62709 17.638C6.33549 17.3581 6.15488 17.0916 6.00371 16.7182C5.88959 16.4363 5.75383 16.0127 5.71678 15.2327C5.67669 14.3891 5.66819 14.1361 5.66819 12C5.66819 9.86391 5.67669 9.61088 5.71678 8.76731C5.75383 7.98732 5.88959 7.56373 6.00371 7.28183C6.15488 6.90841 6.33546 6.64191 6.62709 6.36198C6.91868 6.08202 7.19628 5.90867 7.58526 5.76354C7.8789 5.65398 8.32015 5.52366 9.13264 5.48809C10.0114 5.4496 10.2749 5.44144 12.5 5.44144Z" fill="white"/>
<path id="2" fill-rule="evenodd" clip-rule="evenodd" d="M12.5001 14.6666C10.9659 14.6666 9.72226 13.4727 9.72226 12C9.72226 10.5272 10.9659 9.33329 12.5001 9.33329C14.0342 9.33329 15.2778 10.5272 15.2778 12C15.2778 13.4727 14.0342 14.6666 12.5001 14.6666ZM12.5001 7.89185C10.1366 7.89185 8.22076 9.73109 8.22076 12C8.22076 14.2688 10.1366 16.1081 12.5001 16.1081C14.8634 16.1081 16.7793 14.2688 16.7793 12C16.7793 9.73109 14.8634 7.89185 12.5001 7.89185Z" fill="white"/>
<path id="1" fill-rule="evenodd" clip-rule="evenodd" d="M17.9484 7.72955C17.9484 8.25975 17.5006 8.68953 16.9483 8.68953C16.3961 8.68953 15.9484 8.25975 15.9484 7.72955C15.9484 7.19935 16.3961 6.76953 16.9483 6.76953C17.5006 6.76953 17.9484 7.19935 17.9484 7.72955Z" fill="white"/>
</g>
</g>
<defs>
<linearGradient id="paint0_linear_27_5552" x1="12.5" y1="36" x2="36.48" y2="11.0208" gradientUnits="userSpaceOnUse">
<stop stop-color="#FFD522"/>
<stop offset="0.497382" stop-color="#F1000B"/>
<stop offset="1" stop-color="#B900B3"/>
</linearGradient>
</defs>
</svg>
