<svg width="25" height="24" viewBox="0 0 25 24" fill="none" xmlns="http://www.w3.org/2000/svg">
<g id="WhatsApp ">
<ellipse id="Box" cx="12.5" cy="12" rx="12.5" ry="12" fill="url(#paint0_linear_27_5565)"/>
<g id="Logo">
<path id="2" fill-rule="evenodd" clip-rule="evenodd" d="M5.34398 15.8917L4.16669 20L8.56597 18.8977C9.78267 19.5309 11.146 19.8628 12.5314 19.8628H12.535C17.1084 19.8628 20.8314 16.3056 20.8334 11.9343C20.8342 9.83033 19.9603 7.8122 18.404 6.32413C16.8476 4.83606 14.7363 4.00001 12.5348 4C7.96052 4 4.23819 7.55649 4.23636 11.928C4.23458 13.3193 4.61662 14.6865 5.34398 15.8917ZM9.02175 17.605L8.76977 17.4622L6.15927 18.1164L6.85616 15.6847L6.69196 15.4354C6.0012 14.385 5.63565 13.1691 5.63757 11.9285C5.63908 8.29507 8.73304 5.33914 12.5376 5.33914C16.3469 5.34061 19.4337 8.29308 19.4322 11.9337C19.4306 15.5673 16.3365 18.5237 12.535 18.5237H12.5323C11.2971 18.5238 10.0846 18.2065 9.02175 17.605Z" fill="url(#paint1_linear_27_5565)"/>
<path id="1" fill-rule="evenodd" clip-rule="evenodd" d="M10.4609 8.6136C10.3058 8.28361 10.1421 8.27699 9.99435 8.27137C9.87347 8.26642 9.73513 8.26673 9.59698 8.26673C9.38452 8.27203 9.18403 8.36191 9.04393 8.51466C8.85386 8.71297 8.31812 9.19233 8.31812 10.1673C8.31812 11.1422 9.0612 12.0845 9.16481 12.2169C9.26841 12.3493 10.5992 14.4137 12.7068 15.2081C14.4583 15.8682 14.8147 15.7368 15.1949 15.7038C15.5751 15.6708 16.4216 15.2247 16.5945 14.7618C16.7673 14.2989 16.7673 13.9024 16.7154 13.8197C16.6636 13.7369 16.5253 13.6876 16.3179 13.5885C16.1106 13.4894 15.0912 13.0099 14.9011 12.9438C14.711 12.8777 14.5728 12.8447 14.4345 13.0431C14.2963 13.2416 13.8991 13.6876 13.778 13.8197C13.6569 13.9518 13.5361 13.9686 13.3287 13.8695C13.1213 13.7704 12.4534 13.5611 11.6613 12.886C11.0449 12.3608 10.6288 11.7121 10.5078 11.5138C10.3869 11.3154 10.4948 11.2082 10.5988 11.1094C10.692 11.0207 10.8062 10.8781 10.9099 10.7624C11.0136 10.6467 11.0479 10.5641 11.1171 10.4319C11.1862 10.2998 11.1516 10.1839 11.0998 10.0848C11.0479 9.98571 10.6453 9.00546 10.4609 8.6136Z" fill="white"/>
</g>
</g>
<defs>
<linearGradient id="paint0_linear_27_5565" x1="25" y1="24" x2="25" y2="0" gradientUnits="userSpaceOnUse">
<stop stop-color="#20B038"/>
<stop offset="1" stop-color="#60D66A"/>
</linearGradient>
<linearGradient id="paint1_linear_27_5565" x1="20.8334" y1="20" x2="20.8334" y2="4" gradientUnits="userSpaceOnUse">
<stop stop-color="#F9F9F9"/>
<stop offset="1" stop-color="white"/>
</linearGradient>
</defs>
</svg>
